P3
2
2
255
128 128 128
128 128 128
128 128 128
126 126 126
